HIERARCHY
ROOT joint_Root
{
	OFFSET 0.0 0.0 0.0
	CHANNELS 6 Xposition Yposition Zposition Zrotation Xrotation Yrotation 
	JOINT Hips
	{
		OFFSET 4.5925 91.4895 -427.239
		CHANNELS 6 Xposition Yposition Zposition Zrotation Xrotation Yrotation 
		JOINT Spine
		{
			OFFSET 15.7357 0.0 0.0
			CHANNELS 6 Xposition Yposition Zposition Zrotation Xrotation Yrotation 
			JOINT Chest
			{
				OFFSET 8.98455 -0.406207 0.0
				CHANNELS 6 Xposition Yposition Zposition Zrotation Xrotation Yrotation 
				JOINT Neck
				{
					OFFSET 16.3773 0.0 0.0
					CHANNELS 6 Xposition Yposition Zposition Zrotation Xrotation Yrotation 
					JOINT Head
					{
						OFFSET 6.45672 0.0 0.0
						CHANNELS 6 Xposition Yposition Zposition Zrotation Xrotation Yrotation 
						End Site
						{
							OFFSET 0.0 0.0 0.0
						}
					}
				}
				JOINT Shoulder_L
				{
					OFFSET 12.9942 -0.242716 4.98039
					CHANNELS 6 Xposition Yposition Zposition Zrotation Xrotation Yrotation 
					JOINT UpperArm_L
					{
						OFFSET 5.34809 0.0 0.0
						CHANNELS 6 Xposition Yposition Zposition Zrotation Xrotation Yrotation 
						JOINT LowerArm_L
						{
							OFFSET 24.3286 1.87007e-05 0.0
							CHANNELS 6 Xposition Yposition Zposition Zrotation Xrotation Yrotation 
							JOINT Hand_L
							{
								OFFSET 22.2916 0.0 0.0
								CHANNELS 6 Xposition Yposition Zposition Zrotation Xrotation Yrotation 
								End Site
								{
									OFFSET 0.0 0.0 0.0
								}
							}
						}
					}
				}
				JOINT Shoulder_R
				{
					OFFSET 12.9945 -0.242716 -4.98039
					CHANNELS 6 Xposition Yposition Zposition Zrotation Xrotation Yrotation 
					JOINT UpperArm_R
					{
						OFFSET -5.34813 0.0 0.0
						CHANNELS 6 Xposition Yposition Zposition Zrotation Xrotation Yrotation 
						JOINT LowerArm_R
						{
							OFFSET -24.3289 0.000322201 0.0
							CHANNELS 6 Xposition Yposition Zposition Zrotation Xrotation Yrotation 
							JOINT Hand_R
							{
								OFFSET -22.2915 -0.000108084 0.0
								CHANNELS 6 Xposition Yposition Zposition Zrotation Xrotation Yrotation 
								End Site
								{
									OFFSET 0.0 0.0 0.0
								}
							}
						}
					}
				}
			}
		}
		JOINT UpperLeg_L
		{
			OFFSET -2.19248 -6.46944 0.0
			CHANNELS 6 Xposition Yposition Zposition Zrotation Xrotation Yrotation 
			JOINT LowerLeg_L
			{
				OFFSET 39.0811 0.0 -1.23785e-05
				CHANNELS 6 Xposition Yposition Zposition Zrotation Xrotation Yrotation 
				JOINT Foot_L
				{
					OFFSET 40.9854 0.0 -1.26872e-05
					CHANNELS 6 Xposition Yposition Zposition Zrotation Xrotation Yrotation 
					JOINT Toes_L
					{
						OFFSET 11.7543 0.0 0.0
						CHANNELS 6 Xposition Yposition Zposition Zrotation Xrotation Yrotation 
						End Site
						{
							OFFSET 0.0 0.0 0.0
						}
					}
				}
			}
		}
		JOINT UpperLeg_R
		{
			OFFSET -2.19251 6.46944 0.0
			CHANNELS 6 Xposition Yposition Zposition Zrotation Xrotation Yrotation 
			JOINT LowerLeg_R
			{
				OFFSET -39.0811 -0.00228153 -0.0401928
				CHANNELS 6 Xposition Yposition Zposition Zrotation Xrotation Yrotation 
				JOINT Foot_R
				{
					OFFSET -40.9854 0.0 0.0
					CHANNELS 6 Xposition Yposition Zposition Zrotation Xrotation Yrotation 
					JOINT Toes_R
					{
						OFFSET -11.7543 0.0 0.0
						CHANNELS 6 Xposition Yposition Zposition Zrotation Xrotation Yrotation 
						End Site
						{
							OFFSET 0.0 0.0 0.0
						}
					}
				}
			}
		}
	}
}
MOTION
Frames:	4
Frame Time:	0.0333333
0.000000 0.000000 0.000000 0.000000 0.000000 -0.000000 -2.487140 90.558700 1.123340 90.323500 -1.142140 11.972200 15.735700 0.000005 -0.000001 84.636100 81.407800 -83.314000 8.984550 -0.406207 -0.000000 9.365380 -1.578950 2.771520 16.377300 -0.000001 -0.000001 5.867780 -3.414720 3.078320 6.456720 -0.000001 -0.000000 -5.243070 -3.027290 4.016700 12.994200 -0.242716 4.980390 -91.538300 5.858800 -75.260300 5.348090 -0.000007 -0.000001 -63.184700 39.247900 -18.700300 24.328600 0.000019 0.000005 8.776770 22.261100 -22.173300 22.291600 -0.000001 0.000005 8.181770 5.292930 0.269768 12.994500 -0.242716 -4.980390 88.535500 11.660100 -82.790300 -5.348130 -0.000001 -0.000004 -58.168500 33.572900 -13.434600 -24.328900 0.000322 -0.000009 1.104270 3.313240 -18.461100 -22.291500 -0.000108 -0.000004 13.700400 5.384370 -2.436250 -2.192480 -6.469440 -0.000000 -173.772000 -11.752000 2.810860 39.081100 -0.000007 -0.000012 -0.221394 0.374237 30.608500 40.985400 -0.000006 -0.000013 -0.716174 6.273670 -70.958300 11.754300 -0.000000 0.000003 -0.000142 -0.001383 -16.630200 -2.192510 6.469440 -0.000001 173.791000 19.990200 -176.044000 -39.081100 -0.002282 -0.040193 -0.215129 0.364531 30.930600 -40.985400 0.000008 0.000006 4.560970 12.168800 -72.768400 -11.754300 -0.000006 -0.000006 -0.001561 -0.023079 -17.511600
0.000000 0.000000 0.000000 0.000000 0.000000 -0.000000 -2.595000 90.561600 0.946066 90.314100 -1.166130 12.054300 15.735700 0.000005 -0.000001 84.417100 81.314500 -83.022600 8.984550 -0.406207 -0.000000 9.547320 -1.658480 2.925570 16.377300 -0.000001 -0.000001 6.214240 -3.601890 3.391490 6.456720 -0.000001 -0.000000 -4.350570 -3.154530 4.020800 12.994200 -0.242716 4.980390 -91.603500 6.043340 -75.110100 5.348090 -0.000007 -0.000001 -63.066400 38.715300 -18.981100 24.328600 0.000019 0.000005 9.526210 22.653200 -23.542400 22.291600 -0.000001 0.000005 8.150460 5.288930 0.380686 12.994500 -0.242716 -4.980390 88.511000 11.786700 -82.748000 -5.348130 -0.000001 -0.000004 -57.984200 33.642400 -13.803600 -24.328900 0.000322 -0.000009 1.112270 3.260250 -18.865900 -22.291500 -0.000108 -0.000004 13.826900 5.387760 -2.544000 -2.192480 -6.469440 -0.000000 -173.717000 -11.663400 2.727610 39.081100 -0.000007 -0.000012 -0.221788 0.374039 30.666400 40.985400 -0.000006 -0.000013 -0.794808 6.226270 -70.844500 11.754300 -0.000000 0.000003 -0.000154 -0.001489 -16.634100 -2.192510 6.469440 -0.000001 173.927000 19.917000 -176.146000 -39.081100 -0.002282 -0.040193 -0.215038 0.363320 31.004100 -40.985400 0.000008 0.000006 4.646120 12.082400 -72.698100 -11.754300 -0.000006 -0.000006 -0.001602 -0.023617 -17.533400
0.000000 0.000000 0.000000 0.000000 0.000000 -0.000000 -2.720640 90.549200 0.773903 90.312100 -1.211070 12.211400 15.735700 0.000005 -0.000001 84.417400 81.196700 -82.966300 8.984550 -0.406207 -0.000000 9.783120 -1.676910 3.043600 16.377300 -0.000001 -0.000001 6.582370 -3.820980 3.745970 6.456720 -0.000001 -0.000000 -3.484770 -3.288150 4.000950 12.994200 -0.242716 4.980390 -91.635400 6.097790 -74.956100 5.348090 -0.000007 -0.000001 -62.757400 37.691500 -19.387800 24.328600 0.000019 0.000005 10.817600 23.211200 -25.864000 22.291600 -0.000001 0.000005 7.858650 5.285650 0.470674 12.994500 -0.242716 -4.980390 88.495300 11.795100 -82.677600 -5.348130 -0.000001 -0.000004 -58.054800 33.725000 -14.012800 -24.328900 0.000322 -0.000009 1.073780 3.067160 -19.322800 -22.291500 -0.000108 -0.000004 13.903700 5.387010 -2.519900 -2.192480 -6.469440 -0.000000 -173.659000 -11.507300 2.699590 39.081100 -0.000007 -0.000012 -0.223596 0.375342 30.783100 40.985400 -0.000006 -0.000013 -0.924309 6.053020 -70.767400 11.754300 -0.000000 0.000003 -0.000157 -0.001512 -16.635000 -2.192510 6.469440 -0.000001 174.080000 19.750700 -176.203000 -39.081100 -0.002282 -0.040193 -0.211317 0.355127 31.146400 -40.985400 0.000008 0.000006 4.733970 11.905400 -72.672600 -11.754300 -0.000006 -0.000006 -0.001473 -0.021914 -17.464200
0.000000 0.000000 0.000000 0.000000 0.000000 -0.000000 -2.875760 90.541500 0.587601 90.273500 -1.125470 12.410500 15.735700 0.000005 -0.000001 84.417700 81.052100 -82.916800 8.984550 -0.406207 -0.000000 10.072300 -1.699570 3.149530 16.377300 -0.000001 -0.000001 6.965480 -4.041110 3.959440 6.456720 -0.000001 -0.000000 -2.636200 -3.507340 4.203420 12.994200 -0.242716 4.980390 -91.672100 6.188780 -74.848500 5.348090 -0.000007 -0.000001 -61.369900 36.584100 -20.513900 24.328600 0.000019 0.000005 12.736000 23.944100 -29.112400 22.291600 -0.000001 0.000005 7.170500 5.283010 0.544062 12.994500 -0.242716 -4.980390 88.483700 11.780300 -82.612200 -5.348130 -0.000001 -0.000004 -58.264600 33.791800 -14.095700 -24.328900 0.000322 -0.000009 1.047600 2.930730 -19.698000 -22.291500 -0.000108 -0.000004 13.863000 5.389580 -2.602390 -2.192480 -6.469440 -0.000000 -173.562000 -11.243400 2.683350 39.081100 -0.000007 -0.000012 -0.223625 0.373681 30.898300 40.985400 -0.000006 -0.000013 -1.042300 5.970230 -70.669800 11.754300 -0.000000 0.000003 -0.000145 -0.001408 -16.631100 -2.192510 6.469440 -0.000001 174.195000 19.818600 -176.157000 -39.081100 -0.002282 -0.040193 -0.210717 0.352942 31.232000 -40.985400 0.000008 0.000006 4.850690 11.805600 -72.630500 -11.754300 -0.000006 -0.000006 -0.001630 -0.023987 -17.548500
